<?xml version="1.0" encoding="UTF-8" standalone="no"?>
<!DOCTYPE svg PUBLIC "-//W3C//DTD SVG 1.1//EN"
 "http://www.w3.org/Graphics/SVG/1.1/DTD/svg11.dtd">
<!-- Generated by graphviz version 2.40.1 (20161225.0304)
 -->
<!-- Title: G Pages: 1 -->
<svg width="134pt" height="218pt"
 viewBox="0.00 0.00 134.00 218.00" xmlns="http://www.w3.org/2000/svg" xmlns:xlink="http://www.w3.org/1999/xlink">
<g id="graph0" class="graph" transform="scale(1 1) rotate(0) translate(4 214)">
<title>G</title>
<polygon fill="#ffffff" stroke="transparent" points="-4,4 -4,-214 130,-214 130,4 -4,4"/>
<!-- main -->
<g id="node1" class="node">
<title>main</title>
<ellipse fill="none" stroke="#000000" cx="63" cy="-192" rx="28.6953" ry="18"/>
<text text-anchor="middle" x="63" y="-188.3" font-family="Times,serif" font-size="14.00" fill="#000000">main</text>
</g>
<!-- foo -->
<g id="node2" class="node">
<title>foo</title>
<ellipse fill="none" stroke="#000000" cx="63" cy="-105" rx="27" ry="18"/>
<text text-anchor="middle" x="63" y="-101.3" font-family="Times,serif" font-size="14.00" fill="#000000">foo</text>
</g>
<!-- main&#45;&gt;foo -->
<g id="edge1" class="edge">
<title>main&#45;&gt;foo</title>
<path fill="none" stroke="#000000" d="M63,-173.9735C63,-162.1918 63,-146.5607 63,-133.1581"/>
<polygon fill="#000000" stroke="#000000" points="66.5001,-133.0033 63,-123.0034 59.5001,-133.0034 66.5001,-133.0033"/>
<text text-anchor="middle" x="66.5" y="-144.8" font-family="Times,serif" font-size="14.00" fill="#000000">2</text>
</g>
<!-- bar -->
<g id="node3" class="node">
<title>bar</title>
<ellipse fill="none" stroke="#000000" cx="27" cy="-18" rx="27" ry="18"/>
<text text-anchor="middle" x="27" y="-14.3" font-family="Times,serif" font-size="14.00" fill="#000000">bar</text>
</g>
<!-- foo&#45;&gt;bar -->
<g id="edge2" class="edge">
<title>foo&#45;&gt;bar</title>
<path fill="none" stroke="#000000" d="M55.7149,-87.3943C50.6889,-75.2482 43.9107,-58.8674 38.2018,-45.0711"/>
<polygon fill="#000000" stroke="#000000" points="41.3319,-43.4815 34.2743,-35.5796 34.8638,-46.158 41.3319,-43.4815"/>
<text text-anchor="middle" x="51.5" y="-57.8" font-family="Times,serif" font-size="14.00" fill="#000000">2</text>
</g>
<!-- baz -->
<g id="node4" class="node">
<title>baz</title>
<ellipse fill="none" stroke="#000000" cx="99" cy="-18" rx="27" ry="18"/>
<text text-anchor="middle" x="99" y="-14.3" font-family="Times,serif" font-size="14.00" fill="#000000">baz</text>
</g>
<!-- foo&#45;&gt;baz -->
<g id="edge3" class="edge">
<title>foo&#45;&gt;baz</title>
<path fill="none" stroke="#000000" d="M70.2851,-87.3943C75.3111,-75.2482 82.0893,-58.8674 87.7982,-45.0711"/>
<polygon fill="#000000" stroke="#000000" points="91.1362,-46.158 91.7257,-35.5796 84.6681,-43.4815 91.1362,-46.158"/>
<text text-anchor="middle" x="86.5" y="-57.8" font-family="Times,serif" font-size="14.00" fill="#000000">2</text>
</g>
</g>
</svg>
