<?xml version="1.0" encoding="UTF-8" standalone="no"?>
<!DOCTYPE svg PUBLIC "-//W3C//DTD SVG 1.1//EN"
 "http://www.w3.org/Graphics/SVG/1.1/DTD/svg11.dtd">
<!-- Generated by graphviz version 2.40.1 (20161225.0304)
 -->
<!-- Title: G Pages: 1 -->
<svg width="1249pt" height="782pt"
 viewBox="0.00 0.00 1249.24 782.00" xmlns="http://www.w3.org/2000/svg" xmlns:xlink="http://www.w3.org/1999/xlink">
<g id="graph0" class="graph" transform="scale(1 1) rotate(0) translate(4 778)">
<title>G</title>
<polygon fill="#ffffff" stroke="transparent" points="-4,4 -4,-778 1245.2416,-778 1245.2416,4 -4,4"/>
<!-- main -->
<g id="node1" class="node">
<title>main</title>
<ellipse fill="none" stroke="#000000" cx="511.1459" cy="-756" rx="28.6953" ry="18"/>
<text text-anchor="middle" x="511.1459" y="-752.3" font-family="Times,serif" font-size="14.00" fill="#000000">main</text>
</g>
<!-- basename -->
<g id="node2" class="node">
<title>basename</title>
<ellipse fill="none" stroke="#000000" cx="46.1459" cy="-495" rx="46.2923" ry="18"/>
<text text-anchor="middle" x="46.1459" y="-491.3" font-family="Times,serif" font-size="14.00" fill="#000000">basename</text>
</g>
<!-- main&#45;&gt;basename -->
<g id="edge1" class="edge">
<title>main&#45;&gt;basename</title>
<path fill="none" stroke="#000000" d="M484.4889,-749.3894C410.8013,-729.9372 201.4041,-666.5503 74.1459,-546 67.1131,-539.3379 61.4199,-530.5096 57.0497,-522.0732"/>
<polygon fill="#000000" stroke="#000000" points="60.1239,-520.3872 52.6768,-512.8512 53.7989,-523.3864 60.1239,-520.3872"/>
<text text-anchor="middle" x="196.6459" y="-621.8" font-family="Times,serif" font-size="14.00" fill="#000000">1</text>
</g>
<!-- add_envopt -->
<g id="node3" class="node">
<title>add_envopt</title>
<ellipse fill="none" stroke="#000000" cx="577.1459" cy="-669" rx="51.9908" ry="18"/>
<text text-anchor="middle" x="577.1459" y="-665.3" font-family="Times,serif" font-size="14.00" fill="#000000">add_envopt</text>
</g>
<!-- main&#45;&gt;add_envopt -->
<g id="edge2" class="edge">
<title>main&#45;&gt;add_envopt</title>
<path fill="none" stroke="#000000" d="M523.56,-739.636C533.1741,-726.9628 546.6696,-709.1733 557.7116,-694.6179"/>
<polygon fill="#000000" stroke="#000000" points="560.6261,-696.5671 563.8816,-686.4848 555.0493,-692.3363 560.6261,-696.5671"/>
<text text-anchor="middle" x="551.6459" y="-708.8" font-family="Times,serif" font-size="14.00" fill="#000000">1</text>
</g>
<!-- unk(0x4038cf) -->
<g id="node4" class="node">
<title>unk(0x4038cf)</title>
<ellipse fill="none" stroke="#000000" cx="444.1459" cy="-669" rx="63.0888" ry="18"/>
<text text-anchor="middle" x="444.1459" y="-665.3" font-family="Times,serif" font-size="14.00" fill="#000000">unk(0x4038cf)</text>
</g>
<!-- main&#45;&gt;unk(0x4038cf) -->
<g id="edge3" class="edge">
<title>main&#45;&gt;unk(0x4038cf)</title>
<path fill="none" stroke="#000000" d="M498.5437,-739.636C488.8473,-727.0451 475.2617,-709.4041 464.0933,-694.9019"/>
<polygon fill="#000000" stroke="#000000" points="466.7191,-692.5751 457.8445,-686.7878 461.1731,-696.8462 466.7191,-692.5751"/>
<text text-anchor="middle" x="485.6459" y="-708.8" font-family="Times,serif" font-size="14.00" fill="#000000">1</text>
</g>
<!-- unk(0x4063e2) -->
<g id="node34" class="node">
<title>unk(0x4063e2)</title>
<ellipse fill="none" stroke="#000000" cx="711.1459" cy="-669" rx="64.189" ry="18"/>
<text text-anchor="middle" x="711.1459" y="-665.3" font-family="Times,serif" font-size="14.00" fill="#000000">unk(0x4063e2)</text>
</g>
<!-- main&#45;&gt;unk(0x4063e2) -->
<g id="edge43" class="edge">
<title>main&#45;&gt;unk(0x4063e2)</title>
<path fill="none" stroke="#000000" d="M534.8739,-745.6783C567.2519,-731.5939 625.8942,-706.0845 666.6036,-688.3759"/>
<polygon fill="#000000" stroke="#000000" points="668.2522,-691.4757 676.026,-684.2772 665.4599,-685.0567 668.2522,-691.4757"/>
<text text-anchor="middle" x="626.6459" y="-708.8" font-family="Times,serif" font-size="14.00" fill="#000000">1</text>
</g>
<!-- unk(0x4044b7) -->
<g id="node5" class="node">
<title>unk(0x4044b7)</title>
<ellipse fill="none" stroke="#000000" cx="485.1459" cy="-582" rx="64.9885" ry="18"/>
<text text-anchor="middle" x="485.1459" y="-578.3" font-family="Times,serif" font-size="14.00" fill="#000000">unk(0x4044b7)</text>
</g>
<!-- unk(0x4038cf)&#45;&gt;unk(0x4044b7) -->
<g id="edge4" class="edge">
<title>unk(0x4038cf)&#45;&gt;unk(0x4044b7)</title>
<path fill="none" stroke="#000000" d="M452.6411,-650.9735C458.3034,-638.9585 465.8523,-622.9401 472.25,-609.3646"/>
<polygon fill="#000000" stroke="#000000" points="475.5646,-610.5413 476.6616,-600.0034 469.2325,-607.5571 475.5646,-610.5413"/>
<text text-anchor="middle" x="470.6459" y="-621.8" font-family="Times,serif" font-size="14.00" fill="#000000">1</text>
</g>
<!-- clear_bufs -->
<g id="node7" class="node">
<title>clear_bufs</title>
<ellipse fill="none" stroke="#000000" cx="615.1459" cy="-582" rx="47.3916" ry="18"/>
<text text-anchor="middle" x="615.1459" y="-578.3" font-family="Times,serif" font-size="14.00" fill="#000000">clear_bufs</text>
</g>
<!-- unk(0x4038cf)&#45;&gt;clear_bufs -->
<g id="edge6" class="edge">
<title>unk(0x4038cf)&#45;&gt;clear_bufs</title>
<path fill="none" stroke="#000000" d="M475.1127,-653.245C503.896,-638.6008 546.8309,-616.7568 577.5649,-601.1201"/>
<polygon fill="#000000" stroke="#000000" points="579.3566,-604.1356 586.6822,-596.4815 576.1823,-597.8967 579.3566,-604.1356"/>
<text text-anchor="middle" x="543.6459" y="-621.8" font-family="Times,serif" font-size="14.00" fill="#000000">1</text>
</g>
<!-- zip -->
<g id="node8" class="node">
<title>zip</title>
<ellipse fill="none" stroke="#000000" cx="375.1459" cy="-582" rx="27" ry="18"/>
<text text-anchor="middle" x="375.1459" y="-578.3" font-family="Times,serif" font-size="14.00" fill="#000000">zip</text>
</g>
<!-- unk(0x4038cf)&#45;&gt;zip -->
<g id="edge7" class="edge">
<title>unk(0x4038cf)&#45;&gt;zip</title>
<path fill="none" stroke="#000000" d="M430.1827,-651.3943C419.8464,-638.3615 405.6431,-620.453 394.2545,-606.0934"/>
<polygon fill="#000000" stroke="#000000" points="396.881,-603.7726 387.9248,-598.1125 391.3965,-608.1224 396.881,-603.7726"/>
<text text-anchor="middle" x="417.6459" y="-621.8" font-family="Times,serif" font-size="14.00" fill="#000000">1</text>
</g>
<!-- unk(0x4042b5) -->
<g id="node6" class="node">
<title>unk(0x4042b5)</title>
<ellipse fill="none" stroke="#000000" cx="752.1459" cy="-495" rx="64.9885" ry="18"/>
<text text-anchor="middle" x="752.1459" y="-491.3" font-family="Times,serif" font-size="14.00" fill="#000000">unk(0x4042b5)</text>
</g>
<!-- unk(0x4044b7)&#45;&gt;unk(0x4042b5) -->
<g id="edge5" class="edge">
<title>unk(0x4044b7)&#45;&gt;unk(0x4042b5)</title>
<path fill="none" stroke="#000000" d="M527.4528,-568.2146C574.3233,-552.9422 649.9209,-528.3093 700.311,-511.89"/>
<polygon fill="#000000" stroke="#000000" points="701.6133,-515.1469 710.0369,-508.7209 699.4445,-508.4913 701.6133,-515.1469"/>
<text text-anchor="middle" x="638.6459" y="-534.8" font-family="Times,serif" font-size="14.00" fill="#000000">1</text>
</g>
<!-- zip&#45;&gt;basename -->
<g id="edge18" class="edge">
<title>zip&#45;&gt;basename</title>
<path fill="none" stroke="#000000" d="M348.0106,-580.616C287.3787,-577.1799 142.81,-566.9811 99.1459,-546 86.6129,-539.9777 75.1527,-529.8514 66.1203,-520.202"/>
<polygon fill="#000000" stroke="#000000" points="68.6776,-517.8106 59.4228,-512.6531 63.4413,-522.4563 68.6776,-517.8106"/>
<text text-anchor="middle" x="102.6459" y="-534.8" font-family="Times,serif" font-size="14.00" fill="#000000">1</text>
</g>
<!-- updcrc -->
<g id="node9" class="node">
<title>updcrc</title>
<ellipse fill="none" stroke="#000000" cx="155.1459" cy="-192" rx="34.394" ry="18"/>
<text text-anchor="middle" x="155.1459" y="-188.3" font-family="Times,serif" font-size="14.00" fill="#000000">updcrc</text>
</g>
<!-- zip&#45;&gt;updcrc -->
<g id="edge8" class="edge">
<title>zip&#45;&gt;updcrc</title>
<path fill="none" stroke="#000000" d="M348.3384,-578.6608C282.8681,-569.7607 120.1459,-542.829 120.1459,-495 120.1459,-495 120.1459,-495 120.1459,-300 120.1459,-271.114 131.6165,-239.9062 141.4244,-218.5018"/>
<polygon fill="#000000" stroke="#000000" points="144.6193,-219.9333 145.7665,-209.4007 138.3016,-216.919 144.6193,-219.9333"/>
<text text-anchor="middle" x="123.6459" y="-383.3" font-family="Times,serif" font-size="14.00" fill="#000000">1</text>
</g>
<!-- bi_init -->
<g id="node10" class="node">
<title>bi_init</title>
<ellipse fill="none" stroke="#000000" cx="505.1459" cy="-495" rx="33.5952" ry="18"/>
<text text-anchor="middle" x="505.1459" y="-491.3" font-family="Times,serif" font-size="14.00" fill="#000000">bi_init</text>
</g>
<!-- zip&#45;&gt;bi_init -->
<g id="edge9" class="edge">
<title>zip&#45;&gt;bi_init</title>
<path fill="none" stroke="#000000" d="M396.6632,-570.7524C401.3885,-568.4202 406.3991,-566.051 411.1459,-564 432.4436,-554.7978 440.9966,-559.0988 460.1459,-546 470.294,-539.0583 479.6315,-529.3263 487.1389,-520.2222"/>
<polygon fill="#000000" stroke="#000000" points="490.0657,-522.1622 493.4898,-512.1359 484.5606,-517.8386 490.0657,-522.1622"/>
<text text-anchor="middle" x="480.6459" y="-534.8" font-family="Times,serif" font-size="14.00" fill="#000000">1</text>
</g>
<!-- ct_init -->
<g id="node11" class="node">
<title>ct_init</title>
<ellipse fill="none" stroke="#000000" cx="604.1459" cy="-387" rx="33.2948" ry="18"/>
<text text-anchor="middle" x="604.1459" y="-383.3" font-family="Times,serif" font-size="14.00" fill="#000000">ct_init</text>
</g>
<!-- zip&#45;&gt;ct_init -->
<g id="edge10" class="edge">
<title>zip&#45;&gt;ct_init</title>
<path fill="none" stroke="#000000" d="M385.8183,-565.3278C410.8071,-526.5003 472.0647,-432.6013 486.1459,-423 514.4685,-403.6882 528.5633,-415.6528 561.1459,-405 563.7252,-404.1567 566.3666,-403.2255 569.0094,-402.2439"/>
<polygon fill="#000000" stroke="#000000" points="570.4437,-405.4411 578.4788,-398.5355 567.891,-398.9231 570.4437,-405.4411"/>
<text text-anchor="middle" x="446.6459" y="-491.3" font-family="Times,serif" font-size="14.00" fill="#000000">1</text>
</g>
<!-- lm_init -->
<g id="node15" class="node">
<title>lm_init</title>
<ellipse fill="none" stroke="#000000" cx="200.1459" cy="-441" rx="36.2938" ry="18"/>
<text text-anchor="middle" x="200.1459" y="-437.3" font-family="Times,serif" font-size="14.00" fill="#000000">lm_init</text>
</g>
<!-- zip&#45;&gt;lm_init -->
<g id="edge15" class="edge">
<title>zip&#45;&gt;lm_init</title>
<path fill="none" stroke="#000000" d="M357.7264,-567.9649C327.2323,-543.3954 263.9661,-492.4209 227.5545,-463.0835"/>
<polygon fill="#000000" stroke="#000000" points="229.3286,-460.0182 219.3457,-456.4696 224.9368,-465.4691 229.3286,-460.0182"/>
<text text-anchor="middle" x="331.6459" y="-534.8" font-family="Times,serif" font-size="14.00" fill="#000000">1</text>
</g>
<!-- deflate -->
<g id="node17" class="node">
<title>deflate</title>
<ellipse fill="none" stroke="#000000" cx="375.1459" cy="-495" rx="34.394" ry="18"/>
<text text-anchor="middle" x="375.1459" y="-491.3" font-family="Times,serif" font-size="14.00" fill="#000000">deflate</text>
</g>
<!-- zip&#45;&gt;deflate -->
<g id="edge19" class="edge">
<title>zip&#45;&gt;deflate</title>
<path fill="none" stroke="#000000" d="M375.1459,-563.9735C375.1459,-552.1918 375.1459,-536.5607 375.1459,-523.1581"/>
<polygon fill="#000000" stroke="#000000" points="378.646,-523.0033 375.1459,-513.0034 371.646,-523.0034 378.646,-523.0033"/>
<text text-anchor="middle" x="378.6459" y="-534.8" font-family="Times,serif" font-size="14.00" fill="#000000">1</text>
</g>
<!-- flush_outbuf -->
<g id="node32" class="node">
<title>flush_outbuf</title>
<ellipse fill="none" stroke="#000000" cx="613.1459" cy="-495" rx="55.7903" ry="18"/>
<text text-anchor="middle" x="613.1459" y="-491.3" font-family="Times,serif" font-size="14.00" fill="#000000">flush_outbuf</text>
</g>
<!-- zip&#45;&gt;flush_outbuf -->
<g id="edge41" class="edge">
<title>zip&#45;&gt;flush_outbuf</title>
<path fill="none" stroke="#000000" d="M396.1032,-570.4933C400.9492,-568.1237 406.1511,-565.8043 411.1459,-564 444.2003,-552.0597 454.6604,-556.6715 488.1459,-546 516.6334,-536.9213 547.7686,-524.2268 571.839,-513.7744"/>
<polygon fill="#000000" stroke="#000000" points="573.2762,-516.9659 581.0284,-509.7441 570.4646,-510.5554 573.2762,-516.9659"/>
<text text-anchor="middle" x="533.6459" y="-534.8" font-family="Times,serif" font-size="14.00" fill="#000000">1</text>
</g>
<!-- unk(0x408787) -->
<g id="node12" class="node">
<title>unk(0x408787)</title>
<ellipse fill="none" stroke="#000000" cx="621.1459" cy="-105" rx="64.9885" ry="18"/>
<text text-anchor="middle" x="621.1459" y="-101.3" font-family="Times,serif" font-size="14.00" fill="#000000">unk(0x408787)</text>
</g>
<!-- ct_init&#45;&gt;unk(0x408787) -->
<g id="edge11" class="edge">
<title>ct_init&#45;&gt;unk(0x408787)</title>
<path fill="none" stroke="#000000" d="M605.2352,-368.9306C608.1129,-321.1938 615.9359,-191.4254 619.4255,-133.5391"/>
<polygon fill="#000000" stroke="#000000" points="622.9355,-133.4764 620.0437,-123.2838 615.9482,-133.0551 622.9355,-133.4764"/>
<text text-anchor="middle" x="617.6459" y="-242.3" font-family="Times,serif" font-size="14.00" fill="#000000">1</text>
</g>
<!-- bi_reverse -->
<g id="node13" class="node">
<title>bi_reverse</title>
<ellipse fill="none" stroke="#000000" cx="544.1459" cy="-18" rx="47.3916" ry="18"/>
<text text-anchor="middle" x="544.1459" y="-14.3" font-family="Times,serif" font-size="14.00" fill="#000000">bi_reverse</text>
</g>
<!-- ct_init&#45;&gt;bi_reverse -->
<g id="edge13" class="edge">
<title>ct_init&#45;&gt;bi_reverse</title>
<path fill="none" stroke="#000000" d="M581.3434,-373.84C558.9571,-359.0226 528.1459,-332.6907 528.1459,-300 528.1459,-300 528.1459,-300 528.1459,-105 528.1459,-85.0329 532.2729,-62.9069 536.3349,-45.9652"/>
<polygon fill="#000000" stroke="#000000" points="539.7578,-46.7052 538.8181,-36.1521 532.9718,-44.9879 539.7578,-46.7052"/>
<text text-anchor="middle" x="535.1459" y="-188.3" font-family="Times,serif" font-size="14.00" fill="#000000">30</text>
</g>
<!-- unk(0x407f90) -->
<g id="node14" class="node">
<title>unk(0x407f90)</title>
<ellipse fill="none" stroke="#000000" cx="436.1459" cy="-300" rx="63.8893" ry="18"/>
<text text-anchor="middle" x="436.1459" y="-296.3" font-family="Times,serif" font-size="14.00" fill="#000000">unk(0x407f90)</text>
</g>
<!-- ct_init&#45;&gt;unk(0x407f90) -->
<g id="edge14" class="edge">
<title>ct_init&#45;&gt;unk(0x407f90)</title>
<path fill="none" stroke="#000000" d="M578.5418,-375.2638C572.8917,-372.962 566.8798,-370.7287 561.1459,-369 520.4197,-356.7216 502.0862,-375.2603 467.1459,-351 458.6182,-345.0789 452.017,-335.9803 447.1407,-327.0985"/>
<polygon fill="#000000" stroke="#000000" points="450.2437,-325.4773 442.675,-318.0634 443.9683,-328.579 450.2437,-325.4773"/>
<text text-anchor="middle" x="470.6459" y="-339.8" font-family="Times,serif" font-size="14.00" fill="#000000">1</text>
</g>
<!-- unk(0x408787)&#45;&gt;bi_reverse -->
<g id="edge12" class="edge">
<title>unk(0x408787)&#45;&gt;bi_reverse</title>
<path fill="none" stroke="#000000" d="M605.5638,-87.3943C594.2179,-74.5748 578.6968,-57.038 566.0966,-42.8014"/>
<polygon fill="#000000" stroke="#000000" points="568.6906,-40.4513 559.4421,-35.2827 563.4488,-45.0907 568.6906,-40.4513"/>
<text text-anchor="middle" x="591.6459" y="-57.8" font-family="Times,serif" font-size="14.00" fill="#000000">9</text>
</g>
<!-- file_read -->
<g id="node16" class="node">
<title>file_read</title>
<ellipse fill="none" stroke="#000000" cx="190.1459" cy="-300" rx="42.4939" ry="18"/>
<text text-anchor="middle" x="190.1459" y="-296.3" font-family="Times,serif" font-size="14.00" fill="#000000">file_read</text>
</g>
<!-- lm_init&#45;&gt;file_read -->
<g id="edge16" class="edge">
<title>lm_init&#45;&gt;file_read</title>
<path fill="none" stroke="#000000" d="M183.8961,-424.8161C179.167,-419.0497 174.6128,-412.1897 172.1459,-405 163.3888,-379.4772 170.4592,-348.9427 178.1611,-327.3983"/>
<polygon fill="#000000" stroke="#000000" points="181.4931,-328.4846 181.8076,-317.8944 174.9576,-325.977 181.4931,-328.4846"/>
<text text-anchor="middle" x="175.6459" y="-383.3" font-family="Times,serif" font-size="14.00" fill="#000000">1</text>
</g>
<!-- file_read&#45;&gt;updcrc -->
<g id="edge17" class="edge">
<title>file_read&#45;&gt;updcrc</title>
<path fill="none" stroke="#000000" d="M184.3664,-282.166C178.844,-265.1257 170.4399,-239.1929 164.0599,-219.506"/>
<polygon fill="#000000" stroke="#000000" points="167.3465,-218.2944 160.934,-209.8605 160.6875,-220.4525 167.3465,-218.2944"/>
<text text-anchor="middle" x="181.6459" y="-242.3" font-family="Times,serif" font-size="14.00" fill="#000000">1</text>
</g>
<!-- ct_tally -->
<g id="node18" class="node">
<title>ct_tally</title>
<ellipse fill="none" stroke="#000000" cx="373.1459" cy="-387" rx="37.0935" ry="18"/>
<text text-anchor="middle" x="373.1459" y="-383.3" font-family="Times,serif" font-size="14.00" fill="#000000">ct_tally</text>
</g>
<!-- deflate&#45;&gt;ct_tally -->
<g id="edge20" class="edge">
<title>deflate&#45;&gt;ct_tally</title>
<path fill="none" stroke="#000000" d="M374.588,-476.6871C374.4286,-471.0178 374.2657,-464.751 374.1459,-459 373.8469,-444.6463 373.6149,-428.681 373.45,-415.4387"/>
<polygon fill="#000000" stroke="#000000" points="376.9452,-415.0088 373.3272,-405.0509 369.9457,-415.0915 376.9452,-415.0088"/>
<text text-anchor="middle" x="384.6459" y="-437.3" font-family="Times,serif" font-size="14.00" fill="#000000">130</text>
</g>
<!-- longest_match -->
<g id="node19" class="node">
<title>longest_match</title>
<ellipse fill="none" stroke="#000000" cx="490.1459" cy="-387" rx="62.2891" ry="18"/>
<text text-anchor="middle" x="490.1459" y="-383.3" font-family="Times,serif" font-size="14.00" fill="#000000">longest_match</text>
</g>
<!-- deflate&#45;&gt;longest_match -->
<g id="edge21" class="edge">
<title>deflate&#45;&gt;longest_match</title>
<path fill="none" stroke="#000000" d="M384.908,-477.5078C396.1363,-457.5784 413.6101,-427.2089 418.1459,-423 425.293,-416.368 433.8919,-410.6771 442.6205,-405.9069"/>
<polygon fill="#000000" stroke="#000000" points="444.3926,-408.932 451.7082,-401.2682 441.2102,-402.6972 444.3926,-408.932"/>
<text text-anchor="middle" x="425.1459" y="-437.3" font-family="Times,serif" font-size="14.00" fill="#000000">69</text>
</g>
<!-- unk(0x407177) -->
<g id="node20" class="node">
<title>unk(0x407177)</title>
<ellipse fill="none" stroke="#000000" cx="253.1459" cy="-387" rx="64.9885" ry="18"/>
<text text-anchor="middle" x="253.1459" y="-383.3" font-family="Times,serif" font-size="14.00" fill="#000000">unk(0x407177)</text>
</g>
<!-- deflate&#45;&gt;unk(0x407177) -->
<g id="edge22" class="edge">
<title>deflate&#45;&gt;unk(0x407177)</title>
<path fill="none" stroke="#000000" d="M357.4061,-479.2959C337.2186,-461.425 304.0078,-432.0253 280.4994,-411.2145"/>
<polygon fill="#000000" stroke="#000000" points="282.7393,-408.5231 272.9317,-404.5153 278.0994,-413.7644 282.7393,-408.5231"/>
<text text-anchor="middle" x="336.6459" y="-437.3" font-family="Times,serif" font-size="14.00" fill="#000000">1</text>
</g>
<!-- flush_block -->
<g id="node21" class="node">
<title>flush_block</title>
<ellipse fill="none" stroke="#000000" cx="827.1459" cy="-387" rx="51.9908" ry="18"/>
<text text-anchor="middle" x="827.1459" y="-383.3" font-family="Times,serif" font-size="14.00" fill="#000000">flush_block</text>
</g>
<!-- deflate&#45;&gt;flush_block -->
<g id="edge24" class="edge">
<title>deflate&#45;&gt;flush_block</title>
<path fill="none" stroke="#000000" d="M402.6601,-484.1679C409.6114,-481.6323 417.103,-479.0701 424.1459,-477 545.92,-441.2065 692.0167,-411.8744 770.5462,-397.1868"/>
<polygon fill="#000000" stroke="#000000" points="771.515,-400.5668 780.7068,-395.2978 770.2355,-393.6847 771.515,-400.5668"/>
<text text-anchor="middle" x="635.6459" y="-437.3" font-family="Times,serif" font-size="14.00" fill="#000000">1</text>
</g>
<!-- unk(0x407177)&#45;&gt;file_read -->
<g id="edge23" class="edge">
<title>unk(0x407177)&#45;&gt;file_read</title>
<path fill="none" stroke="#000000" d="M240.0923,-368.9735C231.0189,-356.4437 218.7928,-339.56 208.7081,-325.6335"/>
<polygon fill="#000000" stroke="#000000" points="211.4529,-323.4563 202.7529,-317.4097 205.7833,-327.5619 211.4529,-323.4563"/>
<text text-anchor="middle" x="229.6459" y="-339.8" font-family="Times,serif" font-size="14.00" fill="#000000">1</text>
</g>
<!-- flush_block&#45;&gt;unk(0x407f90) -->
<g id="edge39" class="edge">
<title>flush_block&#45;&gt;unk(0x407f90)</title>
<path fill="none" stroke="#000000" d="M783.0533,-377.1891C712.7625,-361.549 575.1883,-330.9378 496.0449,-313.3279"/>
<polygon fill="#000000" stroke="#000000" points="496.742,-309.8975 486.2205,-311.1419 495.2216,-316.7304 496.742,-309.8975"/>
<text text-anchor="middle" x="658.6459" y="-339.8" font-family="Times,serif" font-size="14.00" fill="#000000">1</text>
</g>
<!-- unk(0x4088aa) -->
<g id="node22" class="node">
<title>unk(0x4088aa)</title>
<ellipse fill="none" stroke="#000000" cx="696.1459" cy="-192" rx="63.8893" ry="18"/>
<text text-anchor="middle" x="696.1459" y="-188.3" font-family="Times,serif" font-size="14.00" fill="#000000">unk(0x4088aa)</text>
</g>
<!-- flush_block&#45;&gt;unk(0x4088aa) -->
<g id="edge25" class="edge">
<title>flush_block&#45;&gt;unk(0x4088aa)</title>
<path fill="none" stroke="#000000" d="M802.723,-371.0903C784.9987,-358.4899 761.527,-339.4768 746.1459,-318 724.492,-287.7644 710.5194,-246.8462 702.996,-219.9544"/>
<polygon fill="#000000" stroke="#000000" points="706.3092,-218.7965 700.338,-210.0446 699.5482,-220.61 706.3092,-218.7965"/>
<text text-anchor="middle" x="749.6459" y="-296.3" font-family="Times,serif" font-size="14.00" fill="#000000">2</text>
</g>
<!-- unk(0x40911d) -->
<g id="node25" class="node">
<title>unk(0x40911d)</title>
<ellipse fill="none" stroke="#000000" cx="827.1459" cy="-300" rx="64.9885" ry="18"/>
<text text-anchor="middle" x="827.1459" y="-296.3" font-family="Times,serif" font-size="14.00" fill="#000000">unk(0x40911d)</text>
</g>
<!-- flush_block&#45;&gt;unk(0x40911d) -->
<g id="edge29" class="edge">
<title>flush_block&#45;&gt;unk(0x40911d)</title>
<path fill="none" stroke="#000000" d="M827.1459,-368.9735C827.1459,-357.1918 827.1459,-341.5607 827.1459,-328.1581"/>
<polygon fill="#000000" stroke="#000000" points="830.646,-328.0033 827.1459,-318.0034 823.646,-328.0034 830.646,-328.0033"/>
<text text-anchor="middle" x="830.6459" y="-339.8" font-family="Times,serif" font-size="14.00" fill="#000000">1</text>
</g>
<!-- send_bits -->
<g id="node27" class="node">
<title>send_bits</title>
<ellipse fill="none" stroke="#000000" cx="1061.1459" cy="-105" rx="44.393" ry="18"/>
<text text-anchor="middle" x="1061.1459" y="-101.3" font-family="Times,serif" font-size="14.00" fill="#000000">send_bits</text>
</g>
<!-- flush_block&#45;&gt;send_bits -->
<g id="edge32" class="edge">
<title>flush_block&#45;&gt;send_bits</title>
<path fill="none" stroke="#000000" d="M848.4306,-370.4797C864.3011,-357.4238 885.7965,-338.1049 901.1459,-318 955.0714,-247.3676 931.6012,-204.1273 994.1459,-141 998.8948,-136.2069 1010.5294,-129.5036 1022.7953,-123.179"/>
<polygon fill="#000000" stroke="#000000" points="1024.3894,-126.2951 1031.7489,-118.6735 1021.2428,-120.0421 1024.3894,-126.2951"/>
<text text-anchor="middle" x="946.6459" y="-242.3" font-family="Times,serif" font-size="14.00" fill="#000000">1</text>
</g>
<!-- unk(0x4091f3) -->
<g id="node28" class="node">
<title>unk(0x4091f3)</title>
<ellipse fill="none" stroke="#000000" cx="1025.1459" cy="-300" rx="63.8893" ry="18"/>
<text text-anchor="middle" x="1025.1459" y="-296.3" font-family="Times,serif" font-size="14.00" fill="#000000">unk(0x4091f3)</text>
</g>
<!-- flush_block&#45;&gt;unk(0x4091f3) -->
<g id="edge33" class="edge">
<title>flush_block&#45;&gt;unk(0x4091f3)</title>
<path fill="none" stroke="#000000" d="M866.8922,-375.2214C901.0831,-365.0668 945.223,-351.8942 947.1459,-351 963.6689,-343.3167 980.7504,-332.5228 994.7009,-322.8424"/>
<polygon fill="#000000" stroke="#000000" points="996.8144,-325.6344 1002.9495,-316.9966 992.7669,-319.9232 996.8144,-325.6344"/>
<text text-anchor="middle" x="976.6459" y="-339.8" font-family="Times,serif" font-size="14.00" fill="#000000">1</text>
</g>
<!-- unk(0x4097d9) -->
<g id="node30" class="node">
<title>unk(0x4097d9)</title>
<ellipse fill="none" stroke="#000000" cx="1138.1459" cy="-246" rx="64.9885" ry="18"/>
<text text-anchor="middle" x="1138.1459" y="-242.3" font-family="Times,serif" font-size="14.00" fill="#000000">unk(0x4097d9)</text>
</g>
<!-- flush_block&#45;&gt;unk(0x4097d9) -->
<g id="edge37" class="edge">
<title>flush_block&#45;&gt;unk(0x4097d9)</title>
<path fill="none" stroke="#000000" d="M866.0368,-374.8836C873.3472,-372.7886 880.9533,-370.7308 888.1459,-369 981.5267,-346.5295 1023.0261,-377.8491 1098.1459,-318 1112.4578,-306.5975 1122.4564,-288.6035 1128.8778,-273.4571"/>
<polygon fill="#000000" stroke="#000000" points="1132.1891,-274.6001 1132.5903,-264.0129 1125.6744,-272.0392 1132.1891,-274.6001"/>
<text text-anchor="middle" x="1073.6459" y="-339.8" font-family="Times,serif" font-size="14.00" fill="#000000">1</text>
</g>
<!-- bi_windup -->
<g id="node31" class="node">
<title>bi_windup</title>
<ellipse fill="none" stroke="#000000" cx="1193.1459" cy="-300" rx="48.1917" ry="18"/>
<text text-anchor="middle" x="1193.1459" y="-296.3" font-family="Times,serif" font-size="14.00" fill="#000000">bi_windup</text>
</g>
<!-- flush_block&#45;&gt;bi_windup -->
<g id="edge40" class="edge">
<title>flush_block&#45;&gt;bi_windup</title>
<path fill="none" stroke="#000000" d="M864.9167,-374.5037C872.5368,-372.3665 880.5428,-370.3906 888.1459,-369 993.3667,-349.7552 1028.4212,-389.6881 1128.1459,-351 1143.4659,-345.0566 1158.0914,-334.2192 1169.576,-324.0582"/>
<polygon fill="#000000" stroke="#000000" points="1172.0275,-326.5584 1176.995,-317.2002 1167.2759,-321.4181 1172.0275,-326.5584"/>
<text text-anchor="middle" x="1156.6459" y="-339.8" font-family="Times,serif" font-size="14.00" fill="#000000">1</text>
</g>
<!-- unk(0x4088aa)&#45;&gt;unk(0x408787) -->
<g id="edge28" class="edge">
<title>unk(0x4088aa)&#45;&gt;unk(0x408787)</title>
<path fill="none" stroke="#000000" d="M680.9685,-174.3943C670.0912,-161.7765 655.2741,-144.5887 643.1079,-130.4759"/>
<polygon fill="#000000" stroke="#000000" points="645.4811,-127.8684 636.3007,-122.5796 640.1792,-132.439 645.4811,-127.8684"/>
<text text-anchor="middle" x="666.6459" y="-144.8" font-family="Times,serif" font-size="14.00" fill="#000000">1</text>
</g>
<!-- unk(0x40809d) -->
<g id="node23" class="node">
<title>unk(0x40809d)</title>
<ellipse fill="none" stroke="#000000" cx="769.1459" cy="-105" rx="64.9885" ry="18"/>
<text text-anchor="middle" x="769.1459" y="-101.3" font-family="Times,serif" font-size="14.00" fill="#000000">unk(0x40809d)</text>
</g>
<!-- unk(0x4088aa)&#45;&gt;unk(0x40809d) -->
<g id="edge26" class="edge">
<title>unk(0x4088aa)&#45;&gt;unk(0x40809d)</title>
<path fill="none" stroke="#000000" d="M710.9185,-174.3943C721.5058,-161.7765 735.9278,-144.5887 747.7696,-130.4759"/>
<polygon fill="#000000" stroke="#000000" points="750.6486,-132.4898 754.3952,-122.5796 745.2862,-127.9904 750.6486,-132.4898"/>
<text text-anchor="middle" x="743.1459" y="-144.8" font-family="Times,serif" font-size="14.00" fill="#000000">20</text>
</g>
<!-- unk(0x40834c) -->
<g id="node24" class="node">
<title>unk(0x40834c)</title>
<ellipse fill="none" stroke="#000000" cx="916.1459" cy="-105" rx="64.189" ry="18"/>
<text text-anchor="middle" x="916.1459" y="-101.3" font-family="Times,serif" font-size="14.00" fill="#000000">unk(0x40834c)</text>
</g>
<!-- unk(0x4088aa)&#45;&gt;unk(0x40834c) -->
<g id="edge27" class="edge">
<title>unk(0x4088aa)&#45;&gt;unk(0x40834c)</title>
<path fill="none" stroke="#000000" d="M733.4659,-177.2416C770.9186,-162.4308 828.7179,-139.5738 869.2476,-123.5462"/>
<polygon fill="#000000" stroke="#000000" points="870.6307,-126.763 878.6428,-119.8308 868.0564,-120.2535 870.6307,-126.763"/>
<text text-anchor="middle" x="822.6459" y="-144.8" font-family="Times,serif" font-size="14.00" fill="#000000">1</text>
</g>
<!-- unk(0x40911d)&#45;&gt;unk(0x4088aa) -->
<g id="edge31" class="edge">
<title>unk(0x40911d)&#45;&gt;unk(0x4088aa)</title>
<path fill="none" stroke="#000000" d="M806.3886,-282.8871C784.3504,-264.7182 749.3677,-235.8775 724.7309,-215.5663"/>
<polygon fill="#000000" stroke="#000000" points="726.7485,-212.6935 716.8061,-209.0329 722.2956,-218.0947 726.7485,-212.6935"/>
<text text-anchor="middle" x="783.6459" y="-242.3" font-family="Times,serif" font-size="14.00" fill="#000000">1</text>
</g>
<!-- unk(0x408cc7) -->
<g id="node26" class="node">
<title>unk(0x408cc7)</title>
<ellipse fill="none" stroke="#000000" cx="841.1459" cy="-192" rx="63.8893" ry="18"/>
<text text-anchor="middle" x="841.1459" y="-188.3" font-family="Times,serif" font-size="14.00" fill="#000000">unk(0x408cc7)</text>
</g>
<!-- unk(0x40911d)&#45;&gt;unk(0x408cc7) -->
<g id="edge30" class="edge">
<title>unk(0x40911d)&#45;&gt;unk(0x408cc7)</title>
<path fill="none" stroke="#000000" d="M829.5208,-281.6793C831.7062,-264.821 834.9801,-239.5651 837.4972,-220.147"/>
<polygon fill="#000000" stroke="#000000" points="840.9914,-220.4172 838.8061,-210.0502 834.0495,-219.5172 840.9914,-220.4172"/>
<text text-anchor="middle" x="839.6459" y="-242.3" font-family="Times,serif" font-size="14.00" fill="#000000">2</text>
</g>
<!-- unk(0x4091f3)&#45;&gt;send_bits -->
<g id="edge34" class="edge">
<title>unk(0x4091f3)&#45;&gt;send_bits</title>
<path fill="none" stroke="#000000" d="M1012.1887,-281.9965C995.9794,-257.1068 972.1798,-211.0607 988.1459,-174 996.471,-154.6757 1013.1646,-138.2396 1028.489,-126.2618"/>
<polygon fill="#000000" stroke="#000000" points="1030.8676,-128.8545 1036.7999,-120.0761 1026.6882,-123.2391 1030.8676,-128.8545"/>
<text text-anchor="middle" x="995.1459" y="-188.3" font-family="Times,serif" font-size="14.00" fill="#000000">19</text>
</g>
<!-- unk(0x408ec1) -->
<g id="node29" class="node">
<title>unk(0x408ec1)</title>
<ellipse fill="none" stroke="#000000" cx="1075.1459" cy="-192" rx="63.8893" ry="18"/>
<text text-anchor="middle" x="1075.1459" y="-188.3" font-family="Times,serif" font-size="14.00" fill="#000000">unk(0x408ec1)</text>
</g>
<!-- unk(0x4091f3)&#45;&gt;unk(0x408ec1) -->
<g id="edge35" class="edge">
<title>unk(0x4091f3)&#45;&gt;unk(0x408ec1)</title>
<path fill="none" stroke="#000000" d="M1032.9422,-281.8469C1039.2867,-267.2258 1048.5641,-246.1848 1057.1459,-228 1058.5476,-225.0299 1060.0413,-221.9369 1061.546,-218.8664"/>
<polygon fill="#000000" stroke="#000000" points="1064.7019,-220.3804 1066.0121,-209.8669 1058.4315,-217.2687 1064.7019,-220.3804"/>
<text text-anchor="middle" x="1060.6459" y="-242.3" font-family="Times,serif" font-size="14.00" fill="#000000">2</text>
</g>
<!-- unk(0x408ec1)&#45;&gt;send_bits -->
<g id="edge36" class="edge">
<title>unk(0x408ec1)&#45;&gt;send_bits</title>
<path fill="none" stroke="#000000" d="M1072.2451,-173.9735C1070.3492,-162.1918 1067.8338,-146.5607 1065.6771,-133.1581"/>
<polygon fill="#000000" stroke="#000000" points="1069.0874,-132.3203 1064.043,-123.0034 1062.1763,-133.4324 1069.0874,-132.3203"/>
<text text-anchor="middle" x="1075.1459" y="-144.8" font-family="Times,serif" font-size="14.00" fill="#000000">99</text>
</g>
<!-- unk(0x4097d9)&#45;&gt;send_bits -->
<g id="edge38" class="edge">
<title>unk(0x4097d9)&#45;&gt;send_bits</title>
<path fill="none" stroke="#000000" d="M1146.1058,-227.9565C1151.5333,-212.8341 1156.3821,-191.0443 1148.1459,-174 1137.7915,-152.5722 1117.1924,-135.7652 1098.6369,-124.1052"/>
<polygon fill="#000000" stroke="#000000" points="1100.4025,-121.083 1090.0236,-118.9548 1096.81,-127.0908 1100.4025,-121.083"/>
<text text-anchor="middle" x="1162.6459" y="-188.3" font-family="Times,serif" font-size="14.00" fill="#000000">221</text>
</g>
<!-- write_buf -->
<g id="node33" class="node">
<title>write_buf</title>
<ellipse fill="none" stroke="#000000" cx="942.1459" cy="-387" rx="44.6926" ry="18"/>
<text text-anchor="middle" x="942.1459" y="-383.3" font-family="Times,serif" font-size="14.00" fill="#000000">write_buf</text>
</g>
<!-- flush_outbuf&#45;&gt;write_buf -->
<g id="edge42" class="edge">
<title>flush_outbuf&#45;&gt;write_buf</title>
<path fill="none" stroke="#000000" d="M652.7881,-482.1014C706.2548,-464.6874 804.4321,-432.6507 888.1459,-405 891.2894,-403.9617 894.5349,-402.8869 897.8018,-401.803"/>
<polygon fill="#000000" stroke="#000000" points="899.2008,-405.0263 907.5865,-398.551 896.993,-398.3836 899.2008,-405.0263"/>
<text text-anchor="middle" x="830.6459" y="-437.3" font-family="Times,serif" font-size="14.00" fill="#000000">1</text>
</g>
<!-- bye -->
<g id="node35" class="node">
<title>bye</title>
<ellipse fill="none" stroke="#000000" cx="711.1459" cy="-582" rx="27" ry="18"/>
<text text-anchor="middle" x="711.1459" y="-578.3" font-family="Times,serif" font-size="14.00" fill="#000000">bye</text>
</g>
<!-- unk(0x4063e2)&#45;&gt;bye -->
<g id="edge44" class="edge">
<title>unk(0x4063e2)&#45;&gt;bye</title>
<path fill="none" stroke="#000000" d="M711.1459,-650.9735C711.1459,-639.1918 711.1459,-623.5607 711.1459,-610.1581"/>
<polygon fill="#000000" stroke="#000000" points="714.646,-610.0033 711.1459,-600.0034 707.646,-610.0034 714.646,-610.0033"/>
<text text-anchor="middle" x="714.6459" y="-621.8" font-family="Times,serif" font-size="14.00" fill="#000000">1</text>
</g>
</g>
</svg>
