<?xml version="1.0" encoding="UTF-8" standalone="no"?>
<!DOCTYPE svg PUBLIC "-//W3C//DTD SVG 1.1//EN"
 "http://www.w3.org/Graphics/SVG/1.1/DTD/svg11.dtd">
<!-- Generated by graphviz version 2.40.1 (20161225.0304)
 -->
<!-- Title: G Pages: 1 -->
<svg width="1432pt" height="620pt"
 viewBox="0.00 0.00 1432.44 620.00" xmlns="http://www.w3.org/2000/svg" xmlns:xlink="http://www.w3.org/1999/xlink">
<g id="graph0" class="graph" transform="scale(1 1) rotate(0) translate(4 616)">
<title>G</title>
<polygon fill="#ffffff" stroke="transparent" points="-4,4 -4,-616 1428.44,-616 1428.44,4 -4,4"/>
<!-- main -->
<g id="node1" class="node">
<title>main</title>
<ellipse fill="none" stroke="#000000" cx="405.9942" cy="-594" rx="28.6953" ry="18"/>
<text text-anchor="middle" x="405.9942" y="-590.3" font-family="Times,serif" font-size="14.00" fill="#000000">main</text>
</g>
<!-- basename -->
<g id="node2" class="node">
<title>basename</title>
<ellipse fill="none" stroke="#000000" cx="193.9942" cy="-378" rx="46.2923" ry="18"/>
<text text-anchor="middle" x="193.9942" y="-374.3" font-family="Times,serif" font-size="14.00" fill="#000000">basename</text>
</g>
<!-- main&#45;&gt;basename -->
<g id="edge1" class="edge">
<title>main&#45;&gt;basename</title>
<path fill="none" stroke="#000000" d="M378.3342,-588.6883C327.6925,-577.2106 222.1407,-544.6711 187.9942,-468 179.3262,-448.5372 181.5664,-424.3411 185.5685,-405.9402"/>
<polygon fill="#000000" stroke="#000000" points="188.9944,-406.6653 187.9868,-396.1185 182.1974,-404.9916 188.9944,-406.6653"/>
</g>
<!-- add_envopt -->
<g id="node3" class="node">
<title>add_envopt</title>
<ellipse fill="none" stroke="#000000" cx="472.9942" cy="-522" rx="51.9908" ry="18"/>
<text text-anchor="middle" x="472.9942" y="-518.3" font-family="Times,serif" font-size="14.00" fill="#000000">add_envopt</text>
</g>
<!-- main&#45;&gt;add_envopt -->
<g id="edge2" class="edge">
<title>main&#45;&gt;add_envopt</title>
<path fill="none" stroke="#000000" d="M420.5322,-578.3771C429.1419,-569.1249 440.243,-557.1954 450.0149,-546.6942"/>
<polygon fill="#000000" stroke="#000000" points="452.5907,-549.0639 456.8408,-539.3589 447.4662,-544.2953 452.5907,-549.0639"/>
</g>
<!-- unk(0x4038cf) -->
<g id="node4" class="node">
<title>unk(0x4038cf)</title>
<ellipse fill="none" stroke="#000000" cx="339.9942" cy="-522" rx="63.0888" ry="18"/>
<text text-anchor="middle" x="339.9942" y="-518.3" font-family="Times,serif" font-size="14.00" fill="#000000">unk(0x4038cf)</text>
</g>
<!-- main&#45;&gt;unk(0x4038cf) -->
<g id="edge3" class="edge">
<title>main&#45;&gt;unk(0x4038cf)</title>
<path fill="none" stroke="#000000" d="M391.6732,-578.3771C383.3349,-569.2807 372.6241,-557.5962 363.1178,-547.2257"/>
<polygon fill="#000000" stroke="#000000" points="365.4796,-544.6226 356.1423,-539.6161 360.3195,-549.3527 365.4796,-544.6226"/>
</g>
<!-- unk(0x4063e2) -->
<g id="node34" class="node">
<title>unk(0x4063e2)</title>
<ellipse fill="none" stroke="#000000" cx="606.9942" cy="-522" rx="64.189" ry="18"/>
<text text-anchor="middle" x="606.9942" y="-518.3" font-family="Times,serif" font-size="14.00" fill="#000000">unk(0x4063e2)</text>
</g>
<!-- main&#45;&gt;unk(0x4063e2) -->
<g id="edge43" class="edge">
<title>main&#45;&gt;unk(0x4063e2)</title>
<path fill="none" stroke="#000000" d="M431.0446,-585.0267C462.5443,-573.7432 517.348,-554.1121 557.4426,-539.7498"/>
<polygon fill="#000000" stroke="#000000" points="558.8051,-542.9796 567.039,-536.3123 556.4445,-536.3897 558.8051,-542.9796"/>
</g>
<!-- unk(0x4044b7) -->
<g id="node5" class="node">
<title>unk(0x4044b7)</title>
<ellipse fill="none" stroke="#000000" cx="261.9942" cy="-450" rx="64.9885" ry="18"/>
<text text-anchor="middle" x="261.9942" y="-446.3" font-family="Times,serif" font-size="14.00" fill="#000000">unk(0x4044b7)</text>
</g>
<!-- unk(0x4038cf)&#45;&gt;unk(0x4044b7) -->
<g id="edge4" class="edge">
<title>unk(0x4038cf)&#45;&gt;unk(0x4044b7)</title>
<path fill="none" stroke="#000000" d="M321.1126,-504.5708C311.2443,-495.4616 299.0094,-484.1679 288.2348,-474.2221"/>
<polygon fill="#000000" stroke="#000000" points="290.424,-471.4797 280.702,-467.2687 285.676,-476.6233 290.424,-471.4797"/>
</g>
<!-- clear_bufs -->
<g id="node7" class="node">
<title>clear_bufs</title>
<ellipse fill="none" stroke="#000000" cx="391.9942" cy="-450" rx="47.3916" ry="18"/>
<text text-anchor="middle" x="391.9942" y="-446.3" font-family="Times,serif" font-size="14.00" fill="#000000">clear_bufs</text>
</g>
<!-- unk(0x4038cf)&#45;&gt;clear_bufs -->
<g id="edge6" class="edge">
<title>unk(0x4038cf)&#45;&gt;clear_bufs</title>
<path fill="none" stroke="#000000" d="M352.8482,-504.2022C359.0193,-495.6576 366.5313,-485.2564 373.3183,-475.859"/>
<polygon fill="#000000" stroke="#000000" points="376.2706,-477.7491 379.2882,-467.593 370.5958,-473.6506 376.2706,-477.7491"/>
</g>
<!-- zip -->
<g id="node8" class="node">
<title>zip</title>
<ellipse fill="none" stroke="#000000" cx="483.9942" cy="-450" rx="27" ry="18"/>
<text text-anchor="middle" x="483.9942" y="-446.3" font-family="Times,serif" font-size="14.00" fill="#000000">zip</text>
</g>
<!-- unk(0x4038cf)&#45;&gt;zip -->
<g id="edge7" class="edge">
<title>unk(0x4038cf)&#45;&gt;zip</title>
<path fill="none" stroke="#000000" d="M371.5956,-506.1993C395.861,-494.0666 429.1778,-477.4082 453.2313,-465.3815"/>
<polygon fill="#000000" stroke="#000000" points="454.8986,-468.461 462.2776,-460.8583 451.7681,-462.2 454.8986,-468.461"/>
</g>
<!-- unk(0x4042b5) -->
<g id="node6" class="node">
<title>unk(0x4042b5)</title>
<ellipse fill="none" stroke="#000000" cx="64.9942" cy="-378" rx="64.9885" ry="18"/>
<text text-anchor="middle" x="64.9942" y="-374.3" font-family="Times,serif" font-size="14.00" fill="#000000">unk(0x4042b5)</text>
</g>
<!-- unk(0x4044b7)&#45;&gt;unk(0x4042b5) -->
<g id="edge5" class="edge">
<title>unk(0x4044b7)&#45;&gt;unk(0x4042b5)</title>
<path fill="none" stroke="#000000" d="M222.6018,-435.6028C191.3297,-424.1734 147.4442,-408.134 113.9209,-395.8818"/>
<polygon fill="#000000" stroke="#000000" points="114.9122,-392.5178 104.3184,-392.3723 112.5093,-399.0924 114.9122,-392.5178"/>
</g>
<!-- zip&#45;&gt;basename -->
<g id="edge18" class="edge">
<title>zip&#45;&gt;basename</title>
<path fill="none" stroke="#000000" d="M463.1023,-438.3048C458.253,-435.9449 453.0331,-433.6772 447.9942,-432 362.714,-403.6152 336.1326,-418.03 248.9942,-396 245.4237,-395.0973 241.7481,-394.0841 238.0706,-393.0105"/>
<polygon fill="#000000" stroke="#000000" points="238.9888,-389.6314 228.4028,-390.062 236.9468,-396.327 238.9888,-389.6314"/>
</g>
<!-- updcrc -->
<g id="node9" class="node">
<title>updcrc</title>
<ellipse fill="none" stroke="#000000" cx="518.9942" cy="-162" rx="34.394" ry="18"/>
<text text-anchor="middle" x="518.9942" y="-158.3" font-family="Times,serif" font-size="14.00" fill="#000000">updcrc</text>
</g>
<!-- zip&#45;&gt;updcrc -->
<g id="edge8" class="edge">
<title>zip&#45;&gt;updcrc</title>
<path fill="none" stroke="#000000" d="M484.1924,-431.9247C484.9019,-392.4154 488.1487,-295.5323 502.9942,-216 504.6269,-207.2532 507.1206,-197.9015 509.6568,-189.4802"/>
<polygon fill="#000000" stroke="#000000" points="513.0485,-190.3623 512.7166,-179.7726 506.3723,-188.2579 513.0485,-190.3623"/>
</g>
<!-- bi_init -->
<g id="node10" class="node">
<title>bi_init</title>
<ellipse fill="none" stroke="#000000" cx="291.9942" cy="-378" rx="33.5952" ry="18"/>
<text text-anchor="middle" x="291.9942" y="-374.3" font-family="Times,serif" font-size="14.00" fill="#000000">bi_init</text>
</g>
<!-- zip&#45;&gt;bi_init -->
<g id="edge9" class="edge">
<title>zip&#45;&gt;bi_init</title>
<path fill="none" stroke="#000000" d="M462.543,-438.5947C457.8136,-436.2723 452.7846,-433.9469 447.9942,-432 399.1638,-412.1541 384.4639,-414.1942 334.9942,-396 332.6016,-395.12 330.1468,-394.1841 327.6813,-393.2193"/>
<polygon fill="#000000" stroke="#000000" points="328.8114,-389.9013 318.2278,-389.4122 326.1964,-396.3945 328.8114,-389.9013"/>
</g>
<!-- ct_init -->
<g id="node11" class="node">
<title>ct_init</title>
<ellipse fill="none" stroke="#000000" cx="1284.9942" cy="-306" rx="33.2948" ry="18"/>
<text text-anchor="middle" x="1284.9942" y="-302.3" font-family="Times,serif" font-size="14.00" fill="#000000">ct_init</text>
</g>
<!-- zip&#45;&gt;ct_init -->
<g id="edge10" class="edge">
<title>zip&#45;&gt;ct_init</title>
<path fill="none" stroke="#000000" d="M509.7667,-444.021C527.0204,-440.1782 550.2795,-435.3046 570.9942,-432 711.8903,-409.5228 749.33,-419.8855 889.9942,-396 1021.1848,-373.7232 1174.2077,-335.2167 1245.1383,-316.6367"/>
<polygon fill="#000000" stroke="#000000" points="1246.2146,-319.9728 1254.9955,-314.0443 1244.4341,-313.203 1246.2146,-319.9728"/>
</g>
<!-- lm_init -->
<g id="node15" class="node">
<title>lm_init</title>
<ellipse fill="none" stroke="#000000" cx="549.9942" cy="-378" rx="36.2938" ry="18"/>
<text text-anchor="middle" x="549.9942" y="-374.3" font-family="Times,serif" font-size="14.00" fill="#000000">lm_init</text>
</g>
<!-- zip&#45;&gt;lm_init -->
<g id="edge15" class="edge">
<title>zip&#45;&gt;lm_init</title>
<path fill="none" stroke="#000000" d="M498.3153,-434.3771C506.9794,-424.9253 518.205,-412.6792 527.9793,-402.0163"/>
<polygon fill="#000000" stroke="#000000" points="530.6054,-404.3311 534.7826,-394.5945 525.4453,-399.601 530.6054,-404.3311"/>
</g>
<!-- deflate -->
<g id="node17" class="node">
<title>deflate</title>
<ellipse fill="none" stroke="#000000" cx="846.9942" cy="-378" rx="34.394" ry="18"/>
<text text-anchor="middle" x="846.9942" y="-374.3" font-family="Times,serif" font-size="14.00" fill="#000000">deflate</text>
</g>
<!-- zip&#45;&gt;deflate -->
<g id="edge19" class="edge">
<title>zip&#45;&gt;deflate</title>
<path fill="none" stroke="#000000" d="M509.8658,-444.571C527.1615,-440.9603 550.4299,-436.1389 570.9942,-432 653.5091,-415.3924 750.0494,-396.6648 804.3082,-386.2033"/>
<polygon fill="#000000" stroke="#000000" points="805.0999,-389.6152 814.2571,-384.2864 803.7755,-382.7417 805.0999,-389.6152"/>
</g>
<!-- flush_outbuf -->
<g id="node32" class="node">
<title>flush_outbuf</title>
<ellipse fill="none" stroke="#000000" cx="399.9942" cy="-378" rx="55.7903" ry="18"/>
<text text-anchor="middle" x="399.9942" y="-374.3" font-family="Times,serif" font-size="14.00" fill="#000000">flush_outbuf</text>
</g>
<!-- zip&#45;&gt;flush_outbuf -->
<g id="edge41" class="edge">
<title>zip&#45;&gt;flush_outbuf</title>
<path fill="none" stroke="#000000" d="M467.3985,-435.7751C456.0744,-426.0687 440.8035,-412.9793 427.6604,-401.7139"/>
<polygon fill="#000000" stroke="#000000" points="429.6767,-398.8323 419.8063,-394.9818 425.1211,-404.1471 429.6767,-398.8323"/>
</g>
<!-- unk(0x408787) -->
<g id="node12" class="node">
<title>unk(0x408787)</title>
<ellipse fill="none" stroke="#000000" cx="1330.9942" cy="-90" rx="64.9885" ry="18"/>
<text text-anchor="middle" x="1330.9942" y="-86.3" font-family="Times,serif" font-size="14.00" fill="#000000">unk(0x408787)</text>
</g>
<!-- ct_init&#45;&gt;unk(0x408787) -->
<g id="edge11" class="edge">
<title>ct_init&#45;&gt;unk(0x408787)</title>
<path fill="none" stroke="#000000" d="M1295.615,-288.6416C1301.4052,-278.3554 1308.1552,-264.8554 1311.9942,-252 1325.535,-206.657 1329.4938,-151.4814 1330.6105,-118.6311"/>
<polygon fill="#000000" stroke="#000000" points="1334.1157,-118.4848 1330.8899,-108.3929 1327.1183,-118.2937 1334.1157,-118.4848"/>
</g>
<!-- bi_reverse -->
<g id="node13" class="node">
<title>bi_reverse</title>
<ellipse fill="none" stroke="#000000" cx="1376.9942" cy="-18" rx="47.3916" ry="18"/>
<text text-anchor="middle" x="1376.9942" y="-14.3" font-family="Times,serif" font-size="14.00" fill="#000000">bi_reverse</text>
</g>
<!-- ct_init&#45;&gt;bi_reverse -->
<g id="edge13" class="edge">
<title>ct_init&#45;&gt;bi_reverse</title>
<path fill="none" stroke="#000000" d="M1299.8681,-289.6185C1327.71,-257.6255 1386.5474,-183.3519 1404.9942,-108 1408.7988,-92.4589 1408.7847,-87.5445 1404.9942,-72 1402.6793,-62.5065 1398.3798,-52.821 1393.8327,-44.3225"/>
<polygon fill="#000000" stroke="#000000" points="1396.8737,-42.5897 1388.8837,-35.632 1390.7909,-46.0537 1396.8737,-42.5897"/>
</g>
<!-- unk(0x407f90) -->
<g id="node14" class="node">
<title>unk(0x407f90)</title>
<ellipse fill="none" stroke="#000000" cx="1238.9942" cy="-234" rx="63.8893" ry="18"/>
<text text-anchor="middle" x="1238.9942" y="-230.3" font-family="Times,serif" font-size="14.00" fill="#000000">unk(0x407f90)</text>
</g>
<!-- ct_init&#45;&gt;unk(0x407f90) -->
<g id="edge14" class="edge">
<title>ct_init&#45;&gt;unk(0x407f90)</title>
<path fill="none" stroke="#000000" d="M1274.0929,-288.937C1268.6971,-280.4914 1262.0594,-270.1019 1256.014,-260.6396"/>
<polygon fill="#000000" stroke="#000000" points="1258.7926,-258.4879 1250.4593,-251.9453 1252.8938,-262.2566 1258.7926,-258.4879"/>
</g>
<!-- unk(0x408787)&#45;&gt;bi_reverse -->
<g id="edge12" class="edge">
<title>unk(0x408787)&#45;&gt;bi_reverse</title>
<path fill="none" stroke="#000000" d="M1342.365,-72.2022C1347.7684,-63.7448 1354.3338,-53.4685 1360.2892,-44.147"/>
<polygon fill="#000000" stroke="#000000" points="1363.3197,-45.9044 1365.7542,-35.593 1357.4209,-42.1356 1363.3197,-45.9044"/>
</g>
<!-- file_read -->
<g id="node16" class="node">
<title>file_read</title>
<ellipse fill="none" stroke="#000000" cx="553.9942" cy="-234" rx="42.4939" ry="18"/>
<text text-anchor="middle" x="553.9942" y="-230.3" font-family="Times,serif" font-size="14.00" fill="#000000">file_read</text>
</g>
<!-- lm_init&#45;&gt;file_read -->
<g id="edge16" class="edge">
<title>lm_init&#45;&gt;file_read</title>
<path fill="none" stroke="#000000" d="M550.5008,-359.7623C551.1831,-335.201 552.404,-291.2474 553.2066,-262.3541"/>
<polygon fill="#000000" stroke="#000000" points="556.7126,-262.183 553.4917,-252.0896 549.7153,-261.9885 556.7126,-262.183"/>
</g>
<!-- file_read&#45;&gt;updcrc -->
<g id="edge17" class="edge">
<title>file_read&#45;&gt;updcrc</title>
<path fill="none" stroke="#000000" d="M545.3425,-216.2022C541.3161,-207.9192 536.4415,-197.8915 531.9854,-188.7248"/>
<polygon fill="#000000" stroke="#000000" points="535.0662,-187.0565 527.5464,-179.593 528.7706,-190.1169 535.0662,-187.0565"/>
</g>
<!-- ct_tally -->
<g id="node18" class="node">
<title>ct_tally</title>
<ellipse fill="none" stroke="#000000" cx="953.9942" cy="-306" rx="37.0935" ry="18"/>
<text text-anchor="middle" x="953.9942" y="-302.3" font-family="Times,serif" font-size="14.00" fill="#000000">ct_tally</text>
</g>
<!-- deflate&#45;&gt;ct_tally -->
<g id="edge20" class="edge">
<title>deflate&#45;&gt;ct_tally</title>
<path fill="none" stroke="#000000" d="M868.134,-363.7751C884.0453,-353.0685 906.0735,-338.2458 923.8336,-326.295"/>
<polygon fill="#000000" stroke="#000000" points="925.8212,-329.1762 932.1638,-320.6896 921.9132,-323.3686 925.8212,-329.1762"/>
</g>
<!-- longest_match -->
<g id="node19" class="node">
<title>longest_match</title>
<ellipse fill="none" stroke="#000000" cx="1070.9942" cy="-306" rx="62.2891" ry="18"/>
<text text-anchor="middle" x="1070.9942" y="-302.3" font-family="Times,serif" font-size="14.00" fill="#000000">longest_match</text>
</g>
<!-- deflate&#45;&gt;longest_match -->
<g id="edge21" class="edge">
<title>deflate&#45;&gt;longest_match</title>
<path fill="none" stroke="#000000" d="M876.7397,-368.439C913.1405,-356.7387 975.376,-336.7344 1019.5882,-322.5234"/>
<polygon fill="#000000" stroke="#000000" points="1020.8421,-325.7968 1029.2913,-319.4045 1018.7,-319.1326 1020.8421,-325.7968"/>
</g>
<!-- unk(0x407177) -->
<g id="node20" class="node">
<title>unk(0x407177)</title>
<ellipse fill="none" stroke="#000000" cx="679.9942" cy="-306" rx="64.9885" ry="18"/>
<text text-anchor="middle" x="679.9942" y="-302.3" font-family="Times,serif" font-size="14.00" fill="#000000">unk(0x407177)</text>
</g>
<!-- deflate&#45;&gt;unk(0x407177) -->
<g id="edge22" class="edge">
<title>deflate&#45;&gt;unk(0x407177)</title>
<path fill="none" stroke="#000000" d="M820.1628,-366.432C794.4549,-355.3483 755.1777,-338.4144 724.7344,-325.2892"/>
<polygon fill="#000000" stroke="#000000" points="725.7577,-321.919 715.1891,-321.1738 722.9863,-328.347 725.7577,-321.919"/>
</g>
<!-- flush_block -->
<g id="node21" class="node">
<title>flush_block</title>
<ellipse fill="none" stroke="#000000" cx="846.9942" cy="-306" rx="51.9908" ry="18"/>
<text text-anchor="middle" x="846.9942" y="-302.3" font-family="Times,serif" font-size="14.00" fill="#000000">flush_block</text>
</g>
<!-- deflate&#45;&gt;flush_block -->
<g id="edge24" class="edge">
<title>deflate&#45;&gt;flush_block</title>
<path fill="none" stroke="#000000" d="M846.9942,-359.8314C846.9942,-352.131 846.9942,-342.9743 846.9942,-334.4166"/>
<polygon fill="#000000" stroke="#000000" points="850.4943,-334.4132 846.9942,-324.4133 843.4943,-334.4133 850.4943,-334.4132"/>
</g>
<!-- unk(0x407177)&#45;&gt;file_read -->
<g id="edge23" class="edge">
<title>unk(0x407177)&#45;&gt;file_read</title>
<path fill="none" stroke="#000000" d="M651.4029,-289.6621C632.6394,-278.9401 608.0018,-264.8615 588.1998,-253.5461"/>
<polygon fill="#000000" stroke="#000000" points="589.8993,-250.4861 579.4804,-248.5635 586.4263,-256.5638 589.8993,-250.4861"/>
</g>
<!-- flush_block&#45;&gt;unk(0x407f90) -->
<g id="edge39" class="edge">
<title>flush_block&#45;&gt;unk(0x407f90)</title>
<path fill="none" stroke="#000000" d="M885.4949,-293.7008C892.9111,-291.599 900.6552,-289.5857 907.9942,-288 1021.1605,-263.5493 1052.3045,-273.8879 1165.9942,-252 1171.2816,-250.9821 1176.7604,-249.8248 1182.2316,-248.5996"/>
<polygon fill="#000000" stroke="#000000" points="1183.0732,-251.9974 1192.0287,-246.3362 1181.4974,-245.1771 1183.0732,-251.9974"/>
</g>
<!-- unk(0x4088aa) -->
<g id="node22" class="node">
<title>unk(0x4088aa)</title>
<ellipse fill="none" stroke="#000000" cx="1188.9942" cy="-162" rx="63.8893" ry="18"/>
<text text-anchor="middle" x="1188.9942" y="-158.3" font-family="Times,serif" font-size="14.00" fill="#000000">unk(0x4088aa)</text>
</g>
<!-- flush_block&#45;&gt;unk(0x4088aa) -->
<g id="edge25" class="edge">
<title>flush_block&#45;&gt;unk(0x4088aa)</title>
<path fill="none" stroke="#000000" d="M886.6978,-294.1711C932.4559,-280.3806 1002.8245,-258.6282 1013.9942,-252 1034.0013,-240.1276 1032.3693,-228.4939 1051.9942,-216 1077.3324,-199.8689 1108.2693,-187.1704 1134.329,-178.1513"/>
<polygon fill="#000000" stroke="#000000" points="1135.6962,-181.3841 1144.056,-174.8753 1133.4619,-174.7502 1135.6962,-181.3841"/>
</g>
<!-- unk(0x40911d) -->
<g id="node25" class="node">
<title>unk(0x40911d)</title>
<ellipse fill="none" stroke="#000000" cx="939.9942" cy="-234" rx="64.9885" ry="18"/>
<text text-anchor="middle" x="939.9942" y="-230.3" font-family="Times,serif" font-size="14.00" fill="#000000">unk(0x40911d)</text>
</g>
<!-- flush_block&#45;&gt;unk(0x40911d) -->
<g id="edge29" class="edge">
<title>flush_block&#45;&gt;unk(0x40911d)</title>
<path fill="none" stroke="#000000" d="M868.5641,-289.3008C880.8284,-279.8058 896.3776,-267.7677 909.8349,-257.3491"/>
<polygon fill="#000000" stroke="#000000" points="912.1309,-259.9979 917.8956,-251.1086 907.8457,-254.4629 912.1309,-259.9979"/>
</g>
<!-- send_bits -->
<g id="node27" class="node">
<title>send_bits</title>
<ellipse fill="none" stroke="#000000" cx="703.9942" cy="-90" rx="44.393" ry="18"/>
<text text-anchor="middle" x="703.9942" y="-86.3" font-family="Times,serif" font-size="14.00" fill="#000000">send_bits</text>
</g>
<!-- flush_block&#45;&gt;send_bits -->
<g id="edge32" class="edge">
<title>flush_block&#45;&gt;send_bits</title>
<path fill="none" stroke="#000000" d="M801.1382,-297.2168C756.4567,-287.6847 692.9844,-271.2252 676.9942,-252 646.1939,-214.9684 654.0364,-190.0997 667.9942,-144 671.0798,-133.8092 676.7928,-123.7838 682.7731,-115.1903"/>
<polygon fill="#000000" stroke="#000000" points="685.6114,-117.2388 688.7551,-107.121 679.9881,-113.07 685.6114,-117.2388"/>
</g>
<!-- unk(0x4091f3) -->
<g id="node28" class="node">
<title>unk(0x4091f3)</title>
<ellipse fill="none" stroke="#000000" cx="749.9942" cy="-234" rx="63.8893" ry="18"/>
<text text-anchor="middle" x="749.9942" y="-230.3" font-family="Times,serif" font-size="14.00" fill="#000000">unk(0x4091f3)</text>
</g>
<!-- flush_block&#45;&gt;unk(0x4091f3) -->
<g id="edge33" class="edge">
<title>flush_block&#45;&gt;unk(0x4091f3)</title>
<path fill="none" stroke="#000000" d="M824.9834,-289.6621C811.9936,-280.0201 795.3468,-267.6637 781.0388,-257.0434"/>
<polygon fill="#000000" stroke="#000000" points="783.0458,-254.1743 772.93,-251.0245 778.8737,-259.7951 783.0458,-254.1743"/>
</g>
<!-- unk(0x4097d9) -->
<g id="node30" class="node">
<title>unk(0x4097d9)</title>
<ellipse fill="none" stroke="#000000" cx="896.9942" cy="-162" rx="64.9885" ry="18"/>
<text text-anchor="middle" x="896.9942" y="-158.3" font-family="Times,serif" font-size="14.00" fill="#000000">unk(0x4097d9)</text>
</g>
<!-- flush_block&#45;&gt;unk(0x4097d9) -->
<g id="edge37" class="edge">
<title>flush_block&#45;&gt;unk(0x4097d9)</title>
<path fill="none" stroke="#000000" d="M849.1143,-287.9405C851.6751,-269.4249 856.8265,-240.0207 865.9942,-216 869.5609,-206.6549 874.5993,-197.0104 879.5794,-188.504"/>
<polygon fill="#000000" stroke="#000000" points="882.6753,-190.1494 884.8883,-179.7882 876.697,-186.508 882.6753,-190.1494"/>
</g>
<!-- bi_windup -->
<g id="node31" class="node">
<title>bi_windup</title>
<ellipse fill="none" stroke="#000000" cx="1108.9942" cy="-234" rx="48.1917" ry="18"/>
<text text-anchor="middle" x="1108.9942" y="-230.3" font-family="Times,serif" font-size="14.00" fill="#000000">bi_windup</text>
</g>
<!-- flush_block&#45;&gt;bi_windup -->
<g id="edge40" class="edge">
<title>flush_block&#45;&gt;bi_windup</title>
<path fill="none" stroke="#000000" d="M886.3154,-294.1866C893.5147,-292.0837 900.9711,-289.9451 907.9942,-288 969.4952,-270.9671 985.456,-268.8981 1046.9942,-252 1051.6148,-250.7312 1056.4211,-249.3842 1061.2222,-248.0206"/>
<polygon fill="#000000" stroke="#000000" points="1062.3591,-251.3358 1071.009,-245.2177 1060.4318,-244.6063 1062.3591,-251.3358"/>
</g>
<!-- unk(0x4088aa)&#45;&gt;unk(0x408787) -->
<g id="edge28" class="edge">
<title>unk(0x4088aa)&#45;&gt;unk(0x408787)</title>
<path fill="none" stroke="#000000" d="M1220.1567,-146.1993C1240.822,-135.7211 1268.1446,-121.8674 1290.491,-110.5368"/>
<polygon fill="#000000" stroke="#000000" points="1292.0775,-113.6567 1299.4137,-106.0127 1288.9119,-107.4134 1292.0775,-113.6567"/>
</g>
<!-- unk(0x40809d) -->
<g id="node23" class="node">
<title>unk(0x40809d)</title>
<ellipse fill="none" stroke="#000000" cx="1036.9942" cy="-90" rx="64.9885" ry="18"/>
<text text-anchor="middle" x="1036.9942" y="-86.3" font-family="Times,serif" font-size="14.00" fill="#000000">unk(0x40809d)</text>
</g>
<!-- unk(0x4088aa)&#45;&gt;unk(0x40809d) -->
<g id="edge26" class="edge">
<title>unk(0x4088aa)&#45;&gt;unk(0x40809d)</title>
<path fill="none" stroke="#000000" d="M1156.0125,-146.3771C1133.5048,-135.7155 1103.4913,-121.4986 1079.2356,-110.0091"/>
<polygon fill="#000000" stroke="#000000" points="1080.4473,-106.7103 1069.9116,-105.5924 1077.4507,-113.0364 1080.4473,-106.7103"/>
</g>
<!-- unk(0x40834c) -->
<g id="node24" class="node">
<title>unk(0x40834c)</title>
<ellipse fill="none" stroke="#000000" cx="1183.9942" cy="-90" rx="64.189" ry="18"/>
<text text-anchor="middle" x="1183.9942" y="-86.3" font-family="Times,serif" font-size="14.00" fill="#000000">unk(0x40834c)</text>
</g>
<!-- unk(0x4088aa)&#45;&gt;unk(0x40834c) -->
<g id="edge27" class="edge">
<title>unk(0x4088aa)&#45;&gt;unk(0x40834c)</title>
<path fill="none" stroke="#000000" d="M1187.7325,-143.8314C1187.1978,-136.131 1186.5619,-126.9743 1185.9676,-118.4166"/>
<polygon fill="#000000" stroke="#000000" points="1189.4574,-118.1467 1185.2729,-108.4133 1182.4742,-118.6317 1189.4574,-118.1467"/>
</g>
<!-- unk(0x40911d)&#45;&gt;unk(0x4088aa) -->
<g id="edge31" class="edge">
<title>unk(0x40911d)&#45;&gt;unk(0x4088aa)</title>
<path fill="none" stroke="#000000" d="M985.0863,-220.9613C1027.0404,-208.83 1089.6421,-190.7283 1134.4043,-177.785"/>
<polygon fill="#000000" stroke="#000000" points="1135.6035,-181.0818 1144.2377,-174.9417 1133.659,-174.3572 1135.6035,-181.0818"/>
</g>
<!-- unk(0x408cc7) -->
<g id="node26" class="node">
<title>unk(0x408cc7)</title>
<ellipse fill="none" stroke="#000000" cx="1043.9942" cy="-162" rx="63.8893" ry="18"/>
<text text-anchor="middle" x="1043.9942" y="-158.3" font-family="Times,serif" font-size="14.00" fill="#000000">unk(0x408cc7)</text>
</g>
<!-- unk(0x40911d)&#45;&gt;unk(0x408cc7) -->
<g id="edge30" class="edge">
<title>unk(0x40911d)&#45;&gt;unk(0x408cc7)</title>
<path fill="none" stroke="#000000" d="M964.3776,-217.1192C978.3298,-207.46 996.0187,-195.2138 1011.1778,-184.719"/>
<polygon fill="#000000" stroke="#000000" points="1013.5339,-187.3449 1019.7636,-178.775 1009.5494,-181.5895 1013.5339,-187.3449"/>
</g>
<!-- unk(0x4091f3)&#45;&gt;send_bits -->
<g id="edge34" class="edge">
<title>unk(0x4091f3)&#45;&gt;send_bits</title>
<path fill="none" stroke="#000000" d="M716.9066,-218.5492C701.8067,-209.5973 685.4391,-196.7511 676.9942,-180 666.6915,-159.5635 675.7905,-134.4961 686.1199,-116.0114"/>
<polygon fill="#000000" stroke="#000000" points="689.2272,-117.6355 691.3731,-107.2603 683.2255,-114.0328 689.2272,-117.6355"/>
</g>
<!-- unk(0x408ec1) -->
<g id="node29" class="node">
<title>unk(0x408ec1)</title>
<ellipse fill="none" stroke="#000000" cx="749.9942" cy="-162" rx="63.8893" ry="18"/>
<text text-anchor="middle" x="749.9942" y="-158.3" font-family="Times,serif" font-size="14.00" fill="#000000">unk(0x408ec1)</text>
</g>
<!-- unk(0x4091f3)&#45;&gt;unk(0x408ec1) -->
<g id="edge35" class="edge">
<title>unk(0x4091f3)&#45;&gt;unk(0x408ec1)</title>
<path fill="none" stroke="#000000" d="M749.9942,-215.8314C749.9942,-208.131 749.9942,-198.9743 749.9942,-190.4166"/>
<polygon fill="#000000" stroke="#000000" points="753.4943,-190.4132 749.9942,-180.4133 746.4943,-190.4133 753.4943,-190.4132"/>
</g>
<!-- unk(0x408ec1)&#45;&gt;send_bits -->
<g id="edge36" class="edge">
<title>unk(0x408ec1)&#45;&gt;send_bits</title>
<path fill="none" stroke="#000000" d="M738.6234,-144.2022C733.2201,-135.7448 726.6546,-125.4685 720.6993,-116.147"/>
<polygon fill="#000000" stroke="#000000" points="723.5676,-114.1356 715.2342,-107.593 717.6687,-117.9044 723.5676,-114.1356"/>
</g>
<!-- unk(0x4097d9)&#45;&gt;send_bits -->
<g id="edge38" class="edge">
<title>unk(0x4097d9)&#45;&gt;send_bits</title>
<path fill="none" stroke="#000000" d="M857.9378,-147.4297C825.5568,-135.3498 779.6082,-118.2083 746.3481,-105.8004"/>
<polygon fill="#000000" stroke="#000000" points="747.4873,-102.4898 736.8947,-102.2737 745.0406,-109.0483 747.4873,-102.4898"/>
</g>
<!-- write_buf -->
<g id="node33" class="node">
<title>write_buf</title>
<ellipse fill="none" stroke="#000000" cx="399.9942" cy="-306" rx="44.6926" ry="18"/>
<text text-anchor="middle" x="399.9942" y="-302.3" font-family="Times,serif" font-size="14.00" fill="#000000">write_buf</text>
</g>
<!-- flush_outbuf&#45;&gt;write_buf -->
<g id="edge42" class="edge">
<title>flush_outbuf&#45;&gt;write_buf</title>
<path fill="none" stroke="#000000" d="M399.9942,-359.8314C399.9942,-352.131 399.9942,-342.9743 399.9942,-334.4166"/>
<polygon fill="#000000" stroke="#000000" points="403.4943,-334.4132 399.9942,-324.4133 396.4943,-334.4133 403.4943,-334.4132"/>
</g>
<!-- bye -->
<g id="node35" class="node">
<title>bye</title>
<ellipse fill="none" stroke="#000000" cx="606.9942" cy="-450" rx="27" ry="18"/>
<text text-anchor="middle" x="606.9942" y="-446.3" font-family="Times,serif" font-size="14.00" fill="#000000">bye</text>
</g>
<!-- unk(0x4063e2)&#45;&gt;bye -->
<g id="edge44" class="edge">
<title>unk(0x4063e2)&#45;&gt;bye</title>
<path fill="none" stroke="#000000" d="M606.9942,-503.8314C606.9942,-496.131 606.9942,-486.9743 606.9942,-478.4166"/>
<polygon fill="#000000" stroke="#000000" points="610.4943,-478.4132 606.9942,-468.4133 603.4943,-478.4133 610.4943,-478.4132"/>
</g>
</g>
</svg>
